<svg width="631" height="380" viewBox="0 0 631 380" fill="none" xmlns="http://www.w3.org/2000/svg">
<path d="M362 176H554V204H362V176Z" fill="#81A1C1"/>
<circle cx="584.538" cy="189.538" r="33.5377" stroke="#81A1C1" stroke-width="24"/>
<path fill-rule="evenodd" clip-rule="evenodd" d="M324.223 55.5692C288.66 19.9888 240.426 0 190.133 0C139.839 0 91.6052 19.9888 56.0421 55.5692C54.5701 71.4009 58.7676 75.7869 75.6299 75.1664C105.998 44.7836 147.186 27.7147 190.133 27.7147C233.08 27.7147 274.267 44.7836 304.635 75.1664C335.003 105.549 352.064 146.757 352.064 189.725C352.064 232.693 335.003 273.901 304.635 304.284C274.267 334.666 233.08 351.735 190.133 351.735C147.186 351.735 105.998 334.666 75.6299 304.284C60.3051 304.841 57.3329 310.079 56.0421 323.881C91.6052 359.461 139.839 379.45 190.133 379.45C240.426 379.45 288.66 359.461 324.223 323.881C359.786 288.3 379.765 240.043 379.765 189.725C379.765 139.407 359.786 91.1495 324.223 55.5692Z" fill="#81A1C1"/>
<path d="M186.96 64.1038C153.627 64.1038 121.66 77.3485 98.0898 100.924C74.52 124.5 61.2786 156.476 61.2786 189.817C61.2786 223.159 74.52 255.134 98.0898 278.71C121.66 302.286 153.627 315.531 186.96 315.531C220.293 315.531 252.261 302.286 275.83 278.71C299.4 255.134 312.642 223.159 312.642 189.817C312.642 156.476 299.4 124.5 275.83 100.924C252.261 77.3485 220.293 64.1038 186.96 64.1038ZM186.96 82.4678C215.424 82.4678 242.722 93.7778 262.848 113.91C282.975 134.042 294.282 161.346 294.282 189.817C294.282 218.288 282.975 245.593 262.848 265.725C242.722 285.857 215.424 297.167 186.96 297.167C158.497 297.167 131.199 285.857 111.072 265.725C90.9451 245.593 79.6379 218.288 79.6379 189.817C79.6379 161.346 90.9451 134.042 111.072 113.91C131.199 93.7778 158.497 82.4678 186.96 82.4678Z" fill="black"/>
<path d="M238.652 177.077C230.15 280.483 251.959 304.516 251.959 304.516C251.959 304.516 184.066 311.295 150.058 288.001C112.477 262.242 118.022 204.808 118.145 171.408C118.268 136.405 149.689 114.96 179.631 115.576C215.487 116.193 241.486 142.198 238.652 177.077Z" fill="black"/>
<path d="M158.56 234.758C172.484 279.497 220.908 311.665 220.908 311.665L243.703 309.939L158.56 234.758Z" fill="white"/>
<path d="M158.56 234.758C162.257 251.15 180.616 271.609 196.018 286.029C226.576 314.623 247.77 313.637 301.985 353.446C279.56 289.603 278.82 277.032 248.386 222.679C217.951 168.45 165.091 197.66 165.091 197.66C165.091 197.66 154.741 218.119 158.56 234.511V234.758Z" fill="black"/>
<path d="M191.583 156.495C191.583 156.495 186.654 142.198 169.403 142.321C132.438 142.568 133.917 206.534 190.227 206.411C239.021 206.287 238.528 145.526 210.065 145.279C197.497 145.033 191.583 156.495 191.583 156.495Z" fill="white"/>
<path d="M192.199 179.912C205.506 179.912 194.663 198.276 191.459 205.671C189.242 195.318 178.891 179.912 192.199 179.912ZM172.114 161.548C165.214 161.548 159.546 167.094 159.546 174.12C159.546 181.021 165.091 186.691 172.114 186.691C179.014 186.691 184.682 181.145 184.682 174.12C184.682 167.218 179.138 161.548 172.114 161.548ZM209.696 161.425C203.781 161.425 198.852 166.971 198.852 173.996C198.852 180.898 203.658 186.568 209.696 186.568C215.61 186.568 220.539 181.021 220.539 173.996C220.539 167.094 215.733 161.425 209.696 161.425Z" fill="black"/>
</svg>
